<svg width="46" height="46" viewBox="0 0 46 46" fill="none" xmlns="http://www.w3.org/2000/svg">
<g clip-path="url(#clip0_40_3901)">
<path d="M22.9999 43.8022C23.8048 43.7837 24.5772 43.4811 25.1805 42.9479C25.7838 42.4148 26.1792 41.6854 26.2966 40.8889H19.5754C19.6962 41.7071 20.11 42.4536 20.7399 42.9895C21.3698 43.5254 22.1729 43.8142 22.9999 43.8022Z" fill="#9F7AEA"/>
<path d="M41.975 35.9439L41.5406 35.5606C40.308 34.4624 39.2293 33.2031 38.3333 31.8167C37.3548 29.9033 36.7684 27.8137 36.6083 25.6706V19.3583C36.6031 18.5916 36.5348 17.8266 36.4039 17.0711C34.2395 16.6262 32.2953 15.4471 30.9005 13.7333C29.5057 12.0195 28.746 9.87633 28.75 7.66668V6.86168C27.4159 6.20514 25.9825 5.77341 24.5078 5.5839V3.9739C24.5078 3.52148 24.3281 3.0876 24.0081 2.76769C23.6882 2.44779 23.2544 2.26807 22.8019 2.26807C22.3495 2.26807 21.9156 2.44779 21.5957 2.76769C21.2758 3.0876 21.0961 3.52148 21.0961 3.9739V5.64779C17.794 6.11361 14.7718 7.75835 12.5877 10.2784C10.4035 12.7984 9.20476 16.0235 9.21277 19.3583V25.6706C9.05274 27.8137 8.46627 29.9033 7.48777 31.8167C6.60723 33.1997 5.5458 34.4588 4.33166 35.5606L3.89722 35.9439V39.5472H41.975V35.9439Z" fill="#9F7AEA"/>
<path d="M38.3332 14.0556C41.8617 14.0556 44.7221 11.1952 44.7221 7.66672C44.7221 4.13824 41.8617 1.27783 38.3332 1.27783C34.8047 1.27783 31.9443 4.13824 31.9443 7.66672C31.9443 11.1952 34.8047 14.0556 38.3332 14.0556Z" fill="#9F7AEA"/>
</g>
<defs>
<clipPath id="clip0_40_3901">
<rect width="46" height="46" fill="white"/>
</clipPath>
</defs>
</svg>
