<svg width="161" height="164" viewBox="0 0 161 164" fill="none" xmlns="http://www.w3.org/2000/svg">
<g filter="url(#filter0_b_92_3657)">
<rect x="0.195557" width="160.488" height="163.164" rx="25" fill="#4A5568" fill-opacity="0.7"/>
</g>
<g clip-path="url(#clip0_92_3657)">
<rect x="57" y="-19.3076" width="61.3933" height="200.658" transform="rotate(-44 57 -19.3076)" fill="#A0AEC0" fill-opacity="0.3"/>
<rect x="-59" y="46.101" width="64.8605" height="300.392" transform="rotate(-44 -59 46.101)" fill="#A0AEC0" fill-opacity="0.3"/>
<path d="M80.0001 43.3334C69.8911 43.3334 61.6668 51.5577 61.6668 61.6667V72.6667H58.0001C56.0552 72.6667 54.1899 73.4393 52.8146 74.8146C51.4394 76.1899 50.6667 78.0551 50.6667 80V109.333C50.6667 111.278 51.4394 113.144 52.8146 114.519C54.1899 115.894 56.0552 116.667 58.0001 116.667H102C103.945 116.667 105.81 115.894 107.186 114.519C108.561 113.144 109.333 111.278 109.333 109.333V80C109.333 78.0551 108.561 76.1899 107.186 74.8146C105.81 73.4393 103.945 72.6667 102 72.6667H98.3334V61.6667C98.3334 51.5577 90.1091 43.3334 80.0001 43.3334ZM69.0001 61.6667C69.0001 55.602 73.9354 50.6667 80.0001 50.6667C86.0648 50.6667 91.0001 55.602 91.0001 61.6667V72.6667H69.0001V61.6667ZM83.6668 100.984V109.333H76.3334V100.984C75.0515 100.25 74.0222 99.1449 73.3811 97.814C72.7401 96.4831 72.5175 94.9892 72.7426 93.5292C72.9677 92.0692 73.6301 90.7118 74.6422 89.6358C75.6544 88.5598 76.9689 87.8159 78.4124 87.502C79.4846 87.265 80.5964 87.2716 81.6657 87.5214C82.735 87.7713 83.7345 88.2579 84.5907 88.9455C85.4469 89.6331 86.1378 90.5041 86.6125 91.4943C87.0872 92.4845 87.3335 93.5686 87.3334 94.6667C87.3313 95.9491 86.9913 97.2083 86.3476 98.3174C85.7039 99.4265 84.7792 100.346 83.6668 100.984Z" fill="#CBD5E0"/>
</g>
<defs>
<filter id="filter0_b_92_3657" x="-4.80444" y="-5" width="170.488" height="173.164" filterUnits="userSpaceOnUse" color-interpolation-filters="sRGB">
<feFlood flood-opacity="0" result="BackgroundImageFix"/>
<feGaussianBlur in="BackgroundImageFix" stdDeviation="2.5"/>
<feComposite in2="SourceAlpha" operator="in" result="effect1_backgroundBlur_92_3657"/>
<feBlend mode="normal" in="SourceGraphic" in2="effect1_backgroundBlur_92_3657" result="shape"/>
</filter>
<clipPath id="clip0_92_3657">
<rect x="0.195557" y="0.784424" width="160.488" height="163.164" rx="25" fill="white"/>
</clipPath>
</defs>
</svg>
