<svg width="62" height="61" viewBox="0 0 62 61" fill="none" xmlns="http://www.w3.org/2000/svg">
<g clip-path="url(#clip0_16_10976)">
<path d="M39.3627 21.0159C40.4375 21.0435 41.5058 20.5114 42.1317 19.5314C43.0991 18.0169 42.6761 15.9936 41.1864 15.0101C39.6968 14.0265 37.7066 14.4566 36.7392 15.9711C36.1089 16.9579 36.0696 18.1596 36.5316 19.1467L27.6527 24.4502C26.2426 25.2924 24.4242 24.5985 23.9084 23.0205L21.0236 14.1691C21.6539 13.9324 22.2195 13.4971 22.6134 12.8804C23.5808 11.3659 23.1578 9.34256 21.6681 8.35902C20.1785 7.37549 18.1883 7.80556 17.2209 9.32007C16.2535 10.8346 16.6765 12.8579 18.1662 13.8414L18.2134 13.8726L10.289 33.1348C9.32903 35.4629 10.1435 38.1636 12.2331 39.5432L30.9181 51.8797C33.001 53.2549 35.7546 52.9197 37.4672 51.0788L51.5525 35.8842L51.5997 35.9153C53.0894 36.8988 55.0795 36.4688 56.0469 34.9543C57.0143 33.4398 56.5913 31.4165 55.1016 30.4329C53.612 29.4494 51.6218 29.8795 50.6544 31.394C50.2605 32.0107 50.0994 32.713 50.1431 33.3947L41.0161 34.3156C39.3884 34.4783 38.0252 33.0717 38.2085 31.4195L39.3627 21.0159Z" fill="#ECC94B"/>
</g>
<defs>
<clipPath id="clip0_16_10976">
<rect width="46.525" height="41.6345" fill="white" transform="matrix(0.83452 0.550977 -0.538312 0.842745 23.1743 0)"/>
</clipPath>
</defs>
</svg>
