<svg width="112" height="112" viewBox="0 0 112 112" fill="none" xmlns="http://www.w3.org/2000/svg">
<path d="M84 105L83.664 80.262C76.349 73.6225 66.1745 70 55.692 70C45.1465 70 35.35 73.724 28 79.9855V105H84Z" fill="#F95725"/>
<path d="M94.0555 95.536C95.046 98.616 95.753 101.801 96.25 105.021H83.09V78.386C88.192 83.0377 91.9757 88.9536 94.059 95.536H94.0555ZM28.8365 78.491V105.021H15.75C16.2435 101.871 16.989 98.721 17.9795 95.676L18.0845 95.361C20.1378 88.8971 23.8442 83.0818 28.8365 78.491Z" fill="#FF8101"/>
<path d="M26.25 77V85.6695C26.2393 86.1336 26.4134 86.583 26.7341 86.9187C27.0547 87.2545 27.4956 87.4491 27.9597 87.4598C28.4239 87.4704 28.8732 87.2963 29.209 86.9756C29.5447 86.655 29.7393 86.2141 29.75 85.75C29.75 86.2111 29.9319 86.6536 30.2563 86.9813C30.5807 87.309 31.0214 87.4954 31.4825 87.5C31.9472 87.4929 32.3911 87.3058 32.7207 86.9781C33.0503 86.6504 33.2401 86.2077 33.25 85.743C33.2606 86.2044 33.4482 86.6442 33.7739 86.9712C34.0996 87.2982 34.5386 87.4875 35 87.5C35.4667 87.4908 35.9112 87.2992 36.2384 86.9662C36.5655 86.6332 36.7491 86.1853 36.75 85.7185C36.7479 85.9483 36.7911 86.1763 36.8772 86.3894C36.9632 86.6025 37.0904 86.7966 37.2514 86.9605C37.4124 87.1245 37.6042 87.2552 37.8157 87.345C38.0273 87.4349 38.2544 87.4822 38.4842 87.4843C38.714 87.4863 38.942 87.4431 39.1551 87.3571C39.3682 87.271 39.5623 87.1439 39.7263 86.9828C39.8902 86.8218 40.0209 86.63 40.1107 86.4185C40.2006 86.207 40.2479 85.9798 40.25 85.75C40.25 86.2111 40.4319 86.6536 40.7563 86.9813C41.0807 87.309 41.5214 87.4954 41.9825 87.5C42.2189 87.4964 42.4522 87.4461 42.6691 87.352C42.886 87.2579 43.0822 87.122 43.2465 86.9519C43.4107 86.7818 43.5397 86.581 43.6261 86.3609C43.7125 86.1408 43.7546 85.9059 43.75 85.6695V77H26.25ZM68.25 77V85.6695C68.2393 86.1336 68.4134 86.583 68.7341 86.9187C69.0547 87.2545 69.4956 87.4491 69.9597 87.4598C70.4239 87.4704 70.8732 87.2963 71.209 86.9756C71.5447 86.655 71.7393 86.2141 71.75 85.75C71.75 86.2111 71.9319 86.6536 72.2563 86.9813C72.5807 87.309 73.0214 87.4954 73.4825 87.5C73.9472 87.4929 74.3911 87.3058 74.7207 86.9781C75.0503 86.6504 75.2401 86.2077 75.25 85.743C75.2606 86.2044 75.4482 86.6442 75.7739 86.9712C76.0996 87.2982 76.5386 87.4875 77 87.5C77.4667 87.4908 77.9112 87.2992 78.2384 86.9662C78.5655 86.6332 78.7491 86.1853 78.75 85.7185C78.7479 85.9483 78.7911 86.1763 78.8772 86.3894C78.9632 86.6025 79.0904 86.7966 79.2514 86.9605C79.4124 87.1245 79.6042 87.2552 79.8157 87.345C80.0273 87.4349 80.2544 87.4822 80.4842 87.4843C80.714 87.4863 80.942 87.4431 81.1551 87.3571C81.3682 87.271 81.5623 87.1439 81.7263 86.9828C81.8902 86.8218 82.0209 86.63 82.1107 86.4185C82.2006 86.207 82.2479 85.9798 82.25 85.75C82.25 86.2111 82.4319 86.6536 82.7563 86.9813C83.0807 87.309 83.5214 87.4954 83.9825 87.5C84.2189 87.4964 84.4522 87.4461 84.6691 87.352C84.886 87.2579 85.0822 87.122 85.2465 86.9519C85.4107 86.7818 85.5397 86.581 85.6261 86.3609C85.7125 86.1408 85.7546 85.9059 85.75 85.6695V77H68.25ZM54.25 79.891H57.75V104.951H54.25V79.891Z" fill="#F9C23C"/>
<path d="M24.5 72.625C24.5 71.9288 24.7766 71.2611 25.2688 70.7688C25.7611 70.2766 26.4288 70 27.125 70H84.875C85.5712 70 86.2389 70.2766 86.7312 70.7688C87.2234 71.2611 87.5 71.9288 87.5 72.625V76.125C87.5 76.8212 87.2234 77.4889 86.7312 77.9812C86.2389 78.4734 85.5712 78.75 84.875 78.75H69.125C68.5109 78.7506 67.9161 78.535 67.445 78.141C66.1443 79.9653 64.4239 81.4499 62.4289 82.4697C60.4339 83.4894 58.2229 84.0143 55.9825 84C53.746 84.0145 51.5388 83.491 49.5469 82.4738C47.5551 81.4566 45.837 79.9753 44.5375 78.155C44.0691 78.5401 43.4814 78.7505 42.875 78.75H27.125C26.4288 78.75 25.7611 78.4734 25.2688 77.9812C24.7766 77.4889 24.5 76.8212 24.5 76.125V72.625ZM63 89.25C63 89.7141 62.8156 90.1593 62.4874 90.4874C62.1592 90.8156 61.7141 91 61.25 91C60.7859 91 60.3408 90.8156 60.0126 90.4874C59.6844 90.1593 59.5 89.7141 59.5 89.25C59.5 88.7859 59.6844 88.3407 60.0126 88.0126C60.3408 87.6844 60.7859 87.5 61.25 87.5C61.7141 87.5 62.1592 87.6844 62.4874 88.0126C62.8156 88.3407 63 88.7859 63 89.25ZM63 99.75C63 100.214 62.8156 100.659 62.4874 100.987C62.1592 101.316 61.7141 101.5 61.25 101.5C60.7859 101.5 60.3408 101.316 60.0126 100.987C59.6844 100.659 59.5 100.214 59.5 99.75C59.5 99.2859 59.6844 98.8407 60.0126 98.5126C60.3408 98.1844 60.7859 98 61.25 98C61.7141 98 62.1592 98.1844 62.4874 98.5126C62.8156 98.8407 63 99.2859 63 99.75Z" fill="#FFB02E"/>
<path d="M56 78.75C52.1255 78.75 49 75.9185 49 72.4115V68.25H63V72.4115C63 75.9185 59.8745 78.75 56 78.75Z" fill="#E4B29A"/>
<path d="M74.0635 30.6075C73.0345 28.7105 74.8545 27.3945 73.0695 26.7365C71.0709 26.0292 69.3904 24.6316 68.3305 22.7955C66.885 20.2755 64.2775 22.246 61.3235 22.246C60.1895 22.246 59.0905 18.851 58.128 19.2885C57.4722 19.5951 56.7572 19.754 56.0333 19.754C55.3093 19.754 54.5943 19.5951 53.9385 19.2885C52.9445 18.851 51.8805 22.246 50.7465 22.246C47.8275 22.246 45.2515 20.202 43.8095 22.6485C42.6755 24.5455 40.992 26.0085 38.9655 26.7365C37.0755 27.4295 38.787 33.929 38.787 33.929C38.787 33.929 37.282 37.0475 38.9655 39.641C39.55 40.586 38.9655 42.616 38.9655 43.75L35.875 50.708V58.3205C35.875 61.7155 37.9015 64.708 40.922 65.8385L47.4145 68.215V41.125C47.929 40.6105 48.342 39.991 48.72 39.298C49.2894 38.2603 49.6396 37.1166 49.749 35.938C50.8746 36.0846 52.0187 35.9805 53.0994 35.6332C54.18 35.2859 55.1706 34.7039 56 33.929C57.442 35.2065 59.262 36.0115 61.2885 36.0115C61.6315 36.0115 61.943 35.9765 62.251 35.938C62.391 37.107 62.6955 38.2375 63.28 39.298C63.658 39.991 64.106 40.5755 64.5855 41.1215V68.25L71.078 65.877C74.0985 64.7815 76.125 61.7505 76.125 58.3555V50.743L72.667 45.5C72.667 44.3695 73.1115 40.866 73.7275 39.9175C75.5125 37.2155 75.677 33.6 74.0635 30.6075Z" fill="#FFF9BA"/>
<path d="M45.5 51.625C45.5 53.2495 44.8547 54.8074 43.706 55.956C42.5574 57.1047 40.9995 57.75 39.375 57.75C37.7505 57.75 36.1926 57.1047 35.044 55.956C33.8953 54.8074 33.25 53.2495 33.25 51.625C33.25 50.0005 33.8953 48.4426 35.044 47.294C36.1926 46.1453 37.7505 45.5 39.375 45.5C40.9995 45.5 42.5574 46.1453 43.706 47.294C44.8547 48.4426 45.5 50.0005 45.5 51.625ZM78.75 51.625C78.75 53.2495 78.1047 54.8074 76.956 55.956C75.8074 57.1047 74.2495 57.75 72.625 57.75C71.0005 57.75 69.4426 57.1047 68.294 55.956C67.1453 54.8074 66.5 53.2495 66.5 51.625C66.5 50.0005 67.1453 48.4426 68.294 47.294C69.4426 46.1453 71.0005 45.5 72.625 45.5C74.2495 45.5 75.8074 46.1453 76.956 47.294C78.1047 48.4426 78.75 50.0005 78.75 51.625Z" fill="#E4B29A"/>
<path d="M60.0601 21H51.8771C42.6931 21 35.7911 28.924 36.8621 38.773L38.2411 60.578C39.2071 68.005 45.3181 73.5 52.5351 73.5H59.5106C66.7241 73.5 72.8351 67.97 73.8046 60.5815L75.1171 38.7765C76.3211 29.3825 69.2476 21 60.0601 21Z" fill="#EEBFAA"/>
<path d="M42.0348 50.365C42.3079 49.2017 42.9739 48.1682 43.9206 47.439C44.8672 46.7098 46.0365 46.3296 47.2309 46.3625C48.4254 46.3954 49.572 46.8394 50.477 47.6196C51.3821 48.3998 51.9902 49.4684 52.1988 50.645C52.3038 51.17 51.8488 51.66 51.3343 51.66H43.0358C42.8781 51.659 42.7227 51.6221 42.5814 51.5522C42.44 51.4822 42.3164 51.381 42.22 51.2562C42.1235 51.1315 42.0567 50.9864 42.0247 50.832C41.9926 50.6776 41.9961 50.5179 42.0348 50.365ZM69.9648 50.365C69.6926 49.2305 69.047 48.2203 68.1317 47.4967C67.2164 46.7731 66.0846 46.3781 64.9178 46.375C62.3978 46.375 60.2873 48.195 59.8043 50.645C59.6993 51.17 60.1473 51.66 60.6653 51.66H68.9638C69.6218 51.66 70.1398 51.03 69.9648 50.365Z" fill="white"/>
<path d="M44.555 50.75C44.555 48.895 46.0425 47.39 47.8765 47.39C49.707 47.39 51.1945 48.895 51.1945 50.785C51.1945 51.065 51.1595 51.38 51.1245 51.66H44.695C44.598 51.3666 44.5506 51.059 44.555 50.75ZM67.48 50.75C67.48 48.895 65.9925 47.39 64.1585 47.39C63.2656 47.3927 62.4096 47.7467 61.7756 48.3754C61.1416 49.0042 60.7806 49.8572 60.7705 50.75C60.7705 51.065 60.8405 51.38 60.9105 51.66H67.34C67.445 51.345 67.48 51.065 67.48 50.75Z" fill="#7D4533"/>
<path d="M47.8767 48.825C48.9127 48.825 49.7772 49.7 49.7772 50.75C49.7772 51.065 49.6722 51.345 49.5357 51.66H46.1827C46.0441 51.3767 45.9722 51.0654 45.9727 50.75C45.9727 49.7 46.8407 48.825 47.8767 48.825ZM64.1587 48.825C63.6527 48.8323 63.1698 49.0383 62.8143 49.3984C62.4588 49.7585 62.259 50.2439 62.2582 50.75C62.2582 51.065 62.3282 51.345 62.4997 51.66H65.8527C65.9912 51.3767 66.0631 51.0654 66.0627 50.75C66.0627 49.7 65.1947 48.825 64.1587 48.825Z" fill="black"/>
<path d="M47.32 49.42C47.32 49.749 47.061 50.015 46.7355 50.015C46.6578 50.0145 46.581 49.9988 46.5094 49.9686C46.4378 49.9385 46.3728 49.8945 46.3182 49.8393C46.2636 49.784 46.2205 49.7186 46.1912 49.6466C46.1619 49.5747 46.147 49.4977 46.1475 49.42C46.1475 49.091 46.41 48.825 46.7355 48.825C47.061 48.825 47.3235 49.091 47.3235 49.42H47.32ZM63.7105 49.42C63.7105 49.5766 63.6488 49.7269 63.5387 49.8383C63.4286 49.9497 63.2791 50.0132 63.1225 50.015C63.0448 50.0145 62.968 49.9988 62.8964 49.9686C62.8248 49.9385 62.7598 49.8945 62.7052 49.8393C62.6506 49.784 62.6075 49.7186 62.5782 49.6466C62.5489 49.5747 62.534 49.4977 62.5345 49.42C62.5345 49.091 62.797 48.825 63.1225 48.825C63.2791 48.8268 63.4286 48.8903 63.5387 49.0017C63.6488 49.1131 63.7105 49.2634 63.7105 49.42Z" fill="white"/>
<path d="M54.5652 49.854L52.5877 55.972C52.1992 57.2285 53.1547 58.485 54.5337 58.485H57.4667C58.8457 58.485 59.8012 57.225 59.4127 55.9685L57.4317 49.854C56.9732 48.5275 54.9922 48.5275 54.5687 49.854H54.5652Z" fill="#D19479"/>
<path d="M56.0072 62.6745C54.1593 62.681 52.3403 62.216 50.7222 61.3235C50.2147 61.0365 49.6372 61.642 49.9767 62.1775C51.2647 64.239 53.5012 65.625 56.0072 65.625C58.5482 65.625 60.7847 64.239 62.0377 62.1775C62.3422 61.642 61.7997 61.0365 61.2922 61.3235C59.6742 62.2161 57.8551 62.6811 56.0072 62.6745Z" fill="#990838"/>
<path d="M37.625 33.25C37.625 33.9462 37.3484 34.6139 36.8562 35.1062C36.3639 35.5984 35.6962 35.875 35 35.875C34.3038 35.875 33.6361 35.5984 33.1438 35.1062C32.6516 34.6139 32.375 33.9462 32.375 33.25C32.375 32.5538 32.6516 31.8861 33.1438 31.3938C33.6361 30.9016 34.3038 30.625 35 30.625C35.6962 30.625 36.3639 30.9016 36.8562 31.3938C37.3484 31.8861 37.625 32.5538 37.625 33.25ZM79.625 33.25C79.625 33.9462 79.3484 34.6139 78.8562 35.1062C78.3639 35.5984 77.6962 35.875 77 35.875C76.3038 35.875 75.6361 35.5984 75.1438 35.1062C74.6516 34.6139 74.375 33.9462 74.375 33.25C74.375 32.5538 74.6516 31.8861 75.1438 31.3938C75.6361 30.9016 76.3038 30.625 77 30.625C77.6962 30.625 78.3639 30.9016 78.8562 31.3938C79.3484 31.8861 79.625 32.5538 79.625 33.25Z" fill="#37C9CD"/>
<path d="M42.385 18.711L38.5 27.671L50.505 26.271L44.73 18.431C45.395 17.976 45.815 17.241 45.815 16.366C45.815 14.966 44.695 13.846 43.295 13.846C42.7068 13.8446 42.1368 14.0493 41.6838 14.4245C41.2308 14.7997 40.9236 15.3217 40.8154 15.8998C40.7073 16.4779 40.8051 17.0757 41.0918 17.5893C41.3785 18.1028 41.8361 18.4997 42.385 18.711ZM69.37 18.711L73.255 27.671L61.25 26.271L67.025 18.431C66.6874 18.2034 66.4116 17.8956 66.2222 17.5352C66.0329 17.1749 65.9359 16.7731 65.94 16.366C65.94 14.966 67.06 13.846 68.46 13.846C69.0482 13.8446 69.6182 14.0493 70.0712 14.4245C70.5242 14.7997 70.8314 15.3217 70.9396 15.8998C71.0477 16.4779 70.9499 17.0757 70.6632 17.5893C70.3765 18.1028 69.9189 18.4997 69.37 18.711Z" fill="#FCD53F"/>
<path d="M82.243 18.074C82.3515 16.534 80.948 15.267 79.331 15.4735C78.7782 15.5334 78.2604 15.7735 77.8575 16.1568C77.4546 16.5401 77.1889 17.0453 77.1015 17.5945C77.0224 18.1896 77.178 18.7922 77.5355 19.2745C77.1039 19.274 76.6803 19.3914 76.3105 19.614L68.9045 24.1325C68.4347 24.4186 67.877 24.5245 67.3351 24.4305C66.7931 24.3365 66.3036 24.0491 65.9575 23.6215L57.7605 13.0095C57.6905 12.9395 57.6205 12.838 57.547 12.7715C58.625 12.187 59.3425 11.0565 59.199 9.793C59.059 8.3545 57.869 7.189 56.3605 7.021C54.418 6.811 52.766 8.253 52.766 10.066C52.766 11.228 53.4485 12.257 54.453 12.7715C54.383 12.8415 54.313 12.908 54.2395 13.0095L46.0425 23.6215C45.7015 24.0561 45.2115 24.3489 44.6672 24.4433C44.1229 24.5377 43.5629 24.4269 43.0955 24.1325L35.686 19.6175C35.3176 19.3943 34.8953 19.2757 34.4645 19.2745C34.8072 18.7852 34.9614 18.1885 34.8985 17.5945C34.8111 17.0453 34.5455 16.5401 34.1426 16.1568C33.7397 15.7735 33.2219 15.5334 32.669 15.4735C31.0135 15.267 29.6485 16.534 29.757 18.074C29.827 18.9315 30.4045 19.684 31.192 20.0935C31.6266 20.3099 32.1114 20.4054 32.5955 20.37C32.342 20.7901 32.2652 21.2935 32.382 21.77L36.512 41.65C36.5575 41.853 36.736 42 36.9425 42H75.0575C75.2675 42 75.4425 41.853 75.4845 41.65L79.618 21.77C79.7169 21.2928 79.6411 20.796 79.4045 20.37C79.835 20.405 80.304 20.37 80.8045 20.1285C81.1987 19.9359 81.5374 19.6463 81.7891 19.287C82.0407 18.9276 82.1969 18.5103 82.243 18.074Z" fill="#FFB02E"/>
<path d="M56 37.1945C58.415 37.1945 60.375 35.28 60.375 32.9245C60.375 30.562 58.415 28.651 56 28.651C53.585 28.651 51.625 30.562 51.625 32.921C51.625 35.28 53.585 37.1945 56 37.1945Z" fill="#00D1ED"/>
<path d="M47.25 33.25C47.25 33.9462 46.9734 34.6139 46.4812 35.1062C45.9889 35.5984 45.3212 35.875 44.625 35.875C43.9288 35.875 43.2611 35.5984 42.7688 35.1062C42.2766 34.6139 42 33.9462 42 33.25C42 32.5538 42.2766 31.8861 42.7688 31.3938C43.2611 30.9016 43.9288 30.625 44.625 30.625C45.3212 30.625 45.9889 30.9016 46.4812 31.3938C46.9734 31.8861 47.25 32.5538 47.25 33.25ZM70 33.25C70 33.9462 69.7234 34.6139 69.2312 35.1062C68.7389 35.5984 68.0712 35.875 67.375 35.875C66.6788 35.875 66.0111 35.5984 65.5188 35.1062C65.0266 34.6139 64.75 33.9462 64.75 33.25C64.75 32.5538 65.0266 31.8861 65.5188 31.3938C66.0111 30.9016 66.6788 30.625 67.375 30.625C68.0712 30.625 68.7389 30.9016 69.2312 31.3938C69.7234 31.8861 70 32.5538 70 33.25Z" fill="#F92F60"/>
</svg>
